<svg xmlns="http://www.w3.org/2000/svg" viewBox="0 0 9.52 13.26"><defs><style>.cls-1{fill:#fff;}.cls-2{fill:#383c83;}</style></defs><title>Asset 16</title><g id="Layer_2" data-name="Layer 2"><g id="Capa_1" data-name="Capa 1"><polygon class="cls-1" points="4.48 0.37 3.62 1.64 2.7 3.12 1.61 4.75 0.77 6.18 0.34 7.44 0.34 8.92 0.56 10.07 1.36 11.54 2.51 12.39 3.83 12.91 5.01 13.01 6.44 12.56 7.91 11.67 8.76 10.52 9.29 8.71 9.13 7.17 8.55 5.83 7.61 4.33 6.11 1.97 5.01 0.51 4.48 0.37"/><g id="WXf05E"><path class="cls-2" d="M4.2,13.19c-.27-.08-.56-.13-.83-.2a4.52,4.52,0,0,1-.62-.21A4.42,4.42,0,0,1,.05,9,5.62,5.62,0,0,1,1,5.28c.67-1.09,1.41-2.14,2.1-3.22.3-.46.58-.94.84-1.43A1.12,1.12,0,0,1,4.55,0H4.9a1.58,1.58,0,0,1,.63.65c.77,1.2,1.55,2.38,2.34,3.56a9.81,9.81,0,0,1,1.5,3A4.7,4.7,0,0,1,6.06,13a4.45,4.45,0,0,1-.76.15l-.16,0Zm.48-.53A4.22,4.22,0,0,0,8.81,7.21,9.76,9.76,0,0,0,7.42,4.53C6.6,3.28,5.79,2,5,.77,4.8.49,4.6.5,4.43.78L2.9,3.26c-.59.94-1.21,1.86-1.75,2.82A4.72,4.72,0,0,0,.57,9,4.08,4.08,0,0,0,4.68,12.66Z"/></g><path class="cls-2" d="M4.29.17S4.69-.16,5,.1"/><path class="cls-2" d="M2.59,12.72a4.42,4.42,0,0,0,4.49-.16"/></g></g></svg>